<svg width="744" height="540" viewBox="0 0 744 540" fill="none" xmlns="http://www.w3.org/2000/svg">
<rect x="12.5" y="12.5" width="443" height="515" rx="37.5" fill="#00ABE1" stroke="white" stroke-width="25"/>
<path d="M184.329 127.999H177.677V134.651H184.329V127.999Z" fill="white"/>
<path d="M191.04 127.999H184.388V134.651H191.04V127.999Z" fill="white"/>
<path d="M204.359 127.999H197.707V134.651H204.359V127.999Z" fill="white"/>
<path d="M217.663 127.999H211.011V134.651H217.663V127.999Z" fill="white"/>
<path d="M224.315 127.999H217.663V134.651H224.315V127.999Z" fill="white"/>
<path d="M237.619 127.999H230.967V134.651H237.619V127.999Z" fill="white"/>
<path d="M244.242 127.999H237.589V134.651H244.242V127.999Z" fill="white"/>
<path d="M250.879 127.999H244.227V134.651H250.879V127.999Z" fill="white"/>
<path d="M270.864 127.999H264.212V134.651H270.864V127.999Z" fill="white"/>
<path d="M184.329 134.651H177.677V141.303H184.329V134.651Z" fill="white"/>
<path d="M197.707 134.651H191.054V141.303H197.707V134.651Z" fill="white"/>
<path d="M210.967 134.651H204.314V141.303H210.967V134.651Z" fill="white"/>
<path d="M217.663 134.651H211.011V141.303H217.663V134.651Z" fill="white"/>
<path d="M224.315 134.651H217.663V141.303H224.315V134.651Z" fill="white"/>
<path d="M237.619 134.651H230.967V141.303H237.619V134.651Z" fill="white"/>
<path d="M244.242 134.651H237.589V141.303H244.242V134.651Z" fill="white"/>
<path d="M250.879 134.651H244.227V141.303H250.879V134.651Z" fill="white"/>
<path d="M257.56 134.651H250.908V141.303H257.56V134.651Z" fill="white"/>
<path d="M264.212 134.651H257.56V141.303H264.212V134.651Z" fill="white"/>
<path d="M277.532 134.651H270.88V141.303H277.532V134.651Z" fill="white"/>
<path d="M184.329 141.311H177.677V147.963H184.329V141.311Z" fill="white"/>
<path d="M191.04 141.311H184.388V147.963H191.04V141.311Z" fill="white"/>
<path d="M197.707 141.311H191.054V147.963H197.707V141.311Z" fill="white"/>
<path d="M204.359 141.311H197.707V147.963H204.359V141.311Z" fill="white"/>
<path d="M210.967 141.311H204.314V147.963H210.967V141.311Z" fill="white"/>
<path d="M217.663 141.311H211.011V147.963H217.663V141.311Z" fill="white"/>
<path d="M224.315 141.311H217.663V147.963H224.315V141.311Z" fill="white"/>
<path d="M237.619 141.311H230.967V147.963H237.619V141.311Z" fill="white"/>
<path d="M257.56 141.311H250.908V147.963H257.56V141.311Z" fill="white"/>
<path d="M264.212 141.311H257.56V147.963H264.212V141.311Z" fill="white"/>
<path d="M270.864 141.311H264.212V147.963H270.864V141.311Z" fill="white"/>
<path d="M284.139 141.311H277.487V147.963H284.139V141.311Z" fill="white"/>
<path d="M290.851 141.311H284.198V147.963H290.851V141.311Z" fill="white"/>
<path d="M191.04 147.955H184.388V154.607H191.04V147.955Z" fill="white"/>
<path d="M197.707 147.955H191.054V154.607H197.707V147.955Z" fill="white"/>
<path d="M204.359 147.955H197.707V154.607H204.359V147.955Z" fill="white"/>
<path d="M224.315 147.955H217.663V154.607H224.315V147.955Z" fill="white"/>
<path d="M237.619 147.955H230.967V154.607H237.619V147.955Z" fill="white"/>
<path d="M244.242 147.955H237.589V154.607H244.242V147.955Z" fill="white"/>
<path d="M264.212 147.955H257.56V154.607H264.212V147.955Z" fill="white"/>
<path d="M290.851 147.955H284.198V154.607H290.851V147.955Z" fill="white"/>
<path d="M184.329 154.607H177.677V161.259H184.329V154.607Z" fill="white"/>
<path d="M197.707 154.607H191.054V161.259H197.707V154.607Z" fill="white"/>
<path d="M217.663 154.607H211.011V161.259H217.663V154.607Z" fill="white"/>
<path d="M230.982 154.607H224.33V161.259H230.982V154.607Z" fill="white"/>
<path d="M237.619 154.607H230.967V161.259H237.619V154.607Z" fill="white"/>
<path d="M257.56 154.607H250.908V161.259H257.56V154.607Z" fill="white"/>
<path d="M270.864 154.607H264.212V161.259H270.864V154.607Z" fill="white"/>
<path d="M277.532 154.607H270.88V161.259H277.532V154.607Z" fill="white"/>
<path d="M217.663 161.259H211.011V167.911H217.663V161.259Z" fill="white"/>
<path d="M224.315 161.259H217.663V167.911H224.315V161.259Z" fill="white"/>
<path d="M230.982 161.259H224.33V167.911H230.982V161.259Z" fill="white"/>
<path d="M237.619 161.259H230.967V167.911H237.619V161.259Z" fill="white"/>
<path d="M264.212 161.259H257.56V167.911H264.212V161.259Z" fill="white"/>
<path d="M284.139 161.259H277.487V167.911H284.139V161.259Z" fill="white"/>
<path d="M290.851 161.259H284.198V167.911H290.851V161.259Z" fill="white"/>
<path d="M184.329 167.911H177.677V174.564H184.329V167.911Z" fill="white"/>
<path d="M197.707 167.911H191.054V174.564H197.707V167.911Z" fill="white"/>
<path d="M210.967 167.911H204.314V174.564H210.967V167.911Z" fill="white"/>
<path d="M224.315 167.911H217.663V174.564H224.315V167.911Z" fill="white"/>
<path d="M237.619 167.911H230.967V174.564H237.619V167.911Z" fill="white"/>
<path d="M250.879 167.911H244.227V174.564H250.879V167.911Z" fill="white"/>
<path d="M264.212 167.911H257.56V174.564H264.212V167.911Z" fill="white"/>
<path d="M277.532 167.911H270.88V174.564H277.532V167.911Z" fill="white"/>
<path d="M290.851 167.911H284.198V174.564H290.851V167.911Z" fill="white"/>
<path d="M191.04 174.571H184.388V181.223H191.04V174.571Z" fill="white"/>
<path d="M204.359 174.571H197.707V181.223H204.359V174.571Z" fill="white"/>
<path d="M217.663 174.571H211.011V181.223H217.663V174.571Z" fill="white"/>
<path d="M224.315 174.571H217.663V181.223H224.315V174.571Z" fill="white"/>
<path d="M230.982 174.571H224.33V181.223H230.982V174.571Z" fill="white"/>
<path d="M237.619 174.571H230.967V181.223H237.619V174.571Z" fill="white"/>
<path d="M257.56 174.571H250.908V181.223H257.56V174.571Z" fill="white"/>
<path d="M131.172 181.215H124.519V187.868H131.172V181.215Z" fill="white"/>
<path d="M151.187 181.215H144.535V187.868H151.187V181.215Z" fill="white"/>
<path d="M157.78 181.215H151.127V187.868H157.78V181.215Z" fill="white"/>
<path d="M164.432 181.215H157.779V187.868H164.432V181.215Z" fill="white"/>
<path d="M171.025 181.215H164.373V187.868H171.025V181.215Z" fill="white"/>
<path d="M177.691 181.215H171.039V187.868H177.691V181.215Z" fill="white"/>
<path d="M184.329 181.215H177.677V187.868H184.329V181.215Z" fill="white"/>
<path d="M191.04 181.215H184.388V187.868H191.04V181.215Z" fill="white"/>
<path d="M210.967 181.215H204.314V187.868H210.967V181.215Z" fill="white"/>
<path d="M224.315 181.215H217.663V187.868H224.315V181.215Z" fill="white"/>
<path d="M244.242 181.215H237.589V187.868H244.242V181.215Z" fill="white"/>
<path d="M257.56 181.215H250.908V187.868H257.56V181.215Z" fill="white"/>
<path d="M264.212 181.215H257.56V187.868H264.212V181.215Z" fill="white"/>
<path d="M297.458 181.215H290.806V187.868H297.458V181.215Z" fill="white"/>
<path d="M317.429 181.215H310.777V187.868H317.429V181.215Z" fill="white"/>
<path d="M330.719 181.215H324.066V187.868H330.719V181.215Z" fill="white"/>
<path d="M337.4 181.215H330.748V187.868H337.4V181.215Z" fill="white"/>
<path d="M344.007 181.215H337.355V187.868H344.007V181.215Z" fill="white"/>
<path d="M131.172 187.875H124.519V194.527H131.172V187.875Z" fill="white"/>
<path d="M144.475 187.875H137.823V194.527H144.475V187.875Z" fill="white"/>
<path d="M184.329 187.875H177.677V194.527H184.329V187.875Z" fill="white"/>
<path d="M191.04 187.875H184.388V194.527H191.04V187.875Z" fill="white"/>
<path d="M197.707 187.875H191.054V194.527H197.707V187.875Z" fill="white"/>
<path d="M204.359 187.875H197.707V194.527H204.359V187.875Z" fill="white"/>
<path d="M217.663 187.875H211.011V194.527H217.663V187.875Z" fill="white"/>
<path d="M224.315 187.875H217.663V194.527H224.315V187.875Z" fill="white"/>
<path d="M230.982 187.875H224.33V194.527H230.982V187.875Z" fill="white"/>
<path d="M250.879 187.875H244.227V194.527H250.879V187.875Z" fill="white"/>
<path d="M257.56 187.875H250.908V194.527H257.56V187.875Z" fill="white"/>
<path d="M270.864 187.875H264.212V194.527H270.864V187.875Z" fill="white"/>
<path d="M277.532 187.875H270.88V194.527H277.532V187.875Z" fill="white"/>
<path d="M284.139 187.875H277.487V194.527H284.139V187.875Z" fill="white"/>
<path d="M317.429 187.875H310.777V194.527H317.429V187.875Z" fill="white"/>
<path d="M324.051 187.875H317.399V194.527H324.051V187.875Z" fill="white"/>
<path d="M330.719 187.875H324.066V194.527H330.719V187.875Z" fill="white"/>
<path d="M131.172 194.527H124.519V201.179H131.172V194.527Z" fill="white"/>
<path d="M137.779 194.527H131.127V201.179H137.779V194.527Z" fill="white"/>
<path d="M144.475 194.527H137.823V201.179H144.475V194.527Z" fill="white"/>
<path d="M151.187 194.527H144.535V201.179H151.187V194.527Z" fill="white"/>
<path d="M157.78 194.527H151.127V201.179H157.78V194.527Z" fill="white"/>
<path d="M164.432 194.527H157.779V201.179H164.432V194.527Z" fill="white"/>
<path d="M171.025 194.527H164.373V201.179H171.025V194.527Z" fill="white"/>
<path d="M184.329 194.527H177.677V201.179H184.329V194.527Z" fill="white"/>
<path d="M204.359 194.527H197.707V201.179H204.359V194.527Z" fill="white"/>
<path d="M217.663 194.527H211.011V201.179H217.663V194.527Z" fill="white"/>
<path d="M230.982 194.527H224.33V201.179H230.982V194.527Z" fill="white"/>
<path d="M244.242 194.527H237.589V201.179H244.242V194.527Z" fill="white"/>
<path d="M277.532 194.527H270.88V201.179H277.532V194.527Z" fill="white"/>
<path d="M284.139 194.527H277.487V201.179H284.139V194.527Z" fill="white"/>
<path d="M304.11 194.527H297.458V201.179H304.11V194.527Z" fill="white"/>
<path d="M317.429 194.527H310.777V201.179H317.429V194.527Z" fill="white"/>
<path d="M324.051 194.527H317.399V201.179H324.051V194.527Z" fill="white"/>
<path d="M330.719 194.527H324.066V201.179H330.719V194.527Z" fill="white"/>
<path d="M337.4 194.527H330.748V201.179H337.4V194.527Z" fill="white"/>
<path d="M344.007 194.527H337.355V201.179H344.007V194.527Z" fill="white"/>
<path d="M137.779 201.179H131.127V207.831H137.779V201.179Z" fill="white"/>
<path d="M157.78 201.179H151.127V207.831H157.78V201.179Z" fill="white"/>
<path d="M164.432 201.179H157.779V207.831H164.432V201.179Z" fill="white"/>
<path d="M177.691 201.179H171.039V207.831H177.691V201.179Z" fill="white"/>
<path d="M184.329 201.179H177.677V207.831H184.329V201.179Z" fill="white"/>
<path d="M197.707 201.179H191.054V207.831H197.707V201.179Z" fill="white"/>
<path d="M204.359 201.179H197.707V207.831H204.359V201.179Z" fill="white"/>
<path d="M210.967 201.179H204.314V207.831H210.967V201.179Z" fill="white"/>
<path d="M217.663 201.179H211.011V207.831H217.663V201.179Z" fill="white"/>
<path d="M230.982 201.179H224.33V207.831H230.982V201.179Z" fill="white"/>
<path d="M237.619 201.179H230.967V207.831H237.619V201.179Z" fill="white"/>
<path d="M244.242 201.179H237.589V207.831H244.242V201.179Z" fill="white"/>
<path d="M250.879 201.179H244.227V207.831H250.879V201.179Z" fill="white"/>
<path d="M257.56 201.179H250.908V207.831H257.56V201.179Z" fill="white"/>
<path d="M284.139 201.179H277.487V207.831H284.139V201.179Z" fill="white"/>
<path d="M297.458 201.179H290.806V207.831H297.458V201.179Z" fill="white"/>
<path d="M310.807 201.179H304.155V207.831H310.807V201.179Z" fill="white"/>
<path d="M330.719 201.179H324.066V207.831H330.719V201.179Z" fill="white"/>
<path d="M337.4 201.179H330.748V207.831H337.4V201.179Z" fill="white"/>
<path d="M344.007 201.179H337.355V207.831H344.007V201.179Z" fill="white"/>
<path d="M131.172 207.831H124.519V214.483H131.172V207.831Z" fill="white"/>
<path d="M137.779 207.831H131.127V214.483H137.779V207.831Z" fill="white"/>
<path d="M144.475 207.831H137.823V214.483H144.475V207.831Z" fill="white"/>
<path d="M151.187 207.831H144.535V214.483H151.187V207.831Z" fill="white"/>
<path d="M171.025 207.831H164.373V214.483H171.025V207.831Z" fill="white"/>
<path d="M184.329 207.831H177.677V214.483H184.329V207.831Z" fill="white"/>
<path d="M197.707 207.831H191.054V214.483H197.707V207.831Z" fill="white"/>
<path d="M204.359 207.831H197.707V214.483H204.359V207.831Z" fill="white"/>
<path d="M217.663 207.831H211.011V214.483H217.663V207.831Z" fill="white"/>
<path d="M230.982 207.831H224.33V214.483H230.982V207.831Z" fill="white"/>
<path d="M237.619 207.831H230.967V214.483H237.619V207.831Z" fill="white"/>
<path d="M250.879 207.831H244.227V214.483H250.879V207.831Z" fill="white"/>
<path d="M257.56 207.831H250.908V214.483H257.56V207.831Z" fill="white"/>
<path d="M264.212 207.831H257.56V214.483H264.212V207.831Z" fill="white"/>
<path d="M290.851 207.831H284.198V214.483H290.851V207.831Z" fill="white"/>
<path d="M304.11 207.831H297.458V214.483H304.11V207.831Z" fill="white"/>
<path d="M131.172 214.476H124.519V221.128H131.172V214.476Z" fill="white"/>
<path d="M144.475 214.476H137.823V221.128H144.475V214.476Z" fill="white"/>
<path d="M157.78 214.476H151.127V221.128H157.78V214.476Z" fill="white"/>
<path d="M164.432 214.476H157.779V221.128H164.432V214.476Z" fill="white"/>
<path d="M204.359 214.476H197.707V221.128H204.359V214.476Z" fill="white"/>
<path d="M210.967 214.476H204.314V221.128H210.967V214.476Z" fill="white"/>
<path d="M217.663 214.476H211.011V221.128H217.663V214.476Z" fill="white"/>
<path d="M224.315 214.476H217.663V221.128H224.315V214.476Z" fill="white"/>
<path d="M250.879 214.476H244.227V221.128H250.879V214.476Z" fill="white"/>
<path d="M277.532 214.476H270.88V221.128H277.532V214.476Z" fill="white"/>
<path d="M284.139 214.476H277.487V221.128H284.139V214.476Z" fill="white"/>
<path d="M310.807 214.476H304.155V221.128H310.807V214.476Z" fill="white"/>
<path d="M137.779 221.135H131.127V227.787H137.779V221.135Z" fill="white"/>
<path d="M144.475 221.135H137.823V227.787H144.475V221.135Z" fill="white"/>
<path d="M151.187 221.135H144.535V227.788H151.187V221.135Z" fill="white"/>
<path d="M157.78 221.135H151.127V227.787H157.78V221.135Z" fill="white"/>
<path d="M171.025 221.135H164.373V227.787H171.025V221.135Z" fill="white"/>
<path d="M184.329 221.135H177.677V227.787H184.329V221.135Z" fill="white"/>
<path d="M191.04 221.135H184.388V227.787H191.04V221.135Z" fill="white"/>
<path d="M204.359 221.135H197.707V227.787H204.359V221.135Z" fill="white"/>
<path d="M210.967 221.135H204.314V227.787H210.967V221.135Z" fill="white"/>
<path d="M230.982 221.135H224.33V227.787H230.982V221.135Z" fill="white"/>
<path d="M237.619 221.135H230.967V227.787H237.619V221.135Z" fill="white"/>
<path d="M244.242 221.135H237.589V227.788H244.242V221.135Z" fill="white"/>
<path d="M250.879 221.135H244.227V227.787H250.879V221.135Z" fill="white"/>
<path d="M257.56 221.135H250.908V227.787H257.56V221.135Z" fill="white"/>
<path d="M270.864 221.135H264.212V227.787H270.864V221.135Z" fill="white"/>
<path d="M277.532 221.135H270.88V227.787H277.532V221.135Z" fill="white"/>
<path d="M304.11 221.135H297.458V227.787H304.11V221.135Z" fill="white"/>
<path d="M330.719 221.135H324.066V227.787H330.719V221.135Z" fill="white"/>
<path d="M131.172 227.78H124.519V234.432H131.172V227.78Z" fill="white"/>
<path d="M144.475 227.78H137.823V234.432H144.475V227.78Z" fill="white"/>
<path d="M177.691 227.78H171.039V234.432H177.691V227.78Z" fill="white"/>
<path d="M184.329 227.78H177.677V234.432H184.329V227.78Z" fill="white"/>
<path d="M191.04 227.78H184.388V234.432H191.04V227.78Z" fill="white"/>
<path d="M197.707 227.78H191.054V234.432H197.707V227.78Z" fill="white"/>
<path d="M210.967 227.787H204.314V234.44H210.967V227.787Z" fill="white"/>
<path d="M217.663 227.78H211.011V234.432H217.663V227.78Z" fill="white"/>
<path d="M224.315 227.78H217.663V234.432H224.315V227.78Z" fill="white"/>
<path d="M257.56 227.78H250.908V234.432H257.56V227.78Z" fill="white"/>
<path d="M264.212 227.78H257.56V234.432H264.212V227.78Z" fill="white"/>
<path d="M284.139 227.78H277.487V234.432H284.139V227.78Z" fill="white"/>
<path d="M297.458 227.78H290.806V234.432H297.458V227.78Z" fill="white"/>
<path d="M310.807 227.78H304.155V234.432H310.807V227.78Z" fill="white"/>
<path d="M324.051 227.787H317.399V234.44H324.051V227.787Z" fill="white"/>
<path d="M330.719 227.78H324.066V234.432H330.719V227.78Z" fill="white"/>
<path d="M344.007 227.78H337.355V234.432H344.007V227.78Z" fill="white"/>
<path d="M151.187 234.432H144.535V241.084H151.187V234.432Z" fill="white"/>
<path d="M164.432 234.432H157.779V241.084H164.432V234.432Z" fill="white"/>
<path d="M171.025 234.432H164.373V241.084H171.025V234.432Z" fill="white"/>
<path d="M197.707 234.432H191.054V241.084H197.707V234.432Z" fill="white"/>
<path d="M204.359 234.439H197.707V241.092H204.359V234.439Z" fill="white"/>
<path d="M277.532 234.439H270.88V241.092H277.532V234.439Z" fill="white"/>
<path d="M290.851 234.432H284.198V241.084H290.851V234.432Z" fill="white"/>
<path d="M297.458 234.432H290.806V241.084H297.458V234.432Z" fill="white"/>
<path d="M304.11 234.432H297.458V241.084H304.11V234.432Z" fill="white"/>
<path d="M310.807 234.432H304.155V241.084H310.807V234.432Z" fill="white"/>
<path d="M317.429 234.432H310.777V241.084H317.429V234.432Z" fill="white"/>
<path d="M144.475 241.076H137.823V247.729H144.475V241.076Z" fill="white"/>
<path d="M151.187 241.076H144.535V247.729H151.187V241.076Z" fill="white"/>
<path d="M177.691 241.076H171.039V247.729H177.691V241.076Z" fill="white"/>
<path d="M217.663 241.076H211.011V247.729H217.663V241.076Z" fill="white"/>
<path d="M230.982 241.076H224.33V247.729H230.982V241.076Z" fill="white"/>
<path d="M250.879 241.076H244.227V247.729H250.879V241.076Z" fill="white"/>
<path d="M257.56 241.076H250.908V247.729H257.56V241.076Z" fill="white"/>
<path d="M264.212 241.076H257.56V247.729H264.212V241.076Z" fill="white"/>
<path d="M290.851 241.076H284.198V247.729H290.851V241.076Z" fill="white"/>
<path d="M304.11 241.076H297.458V247.729H304.11V241.076Z" fill="white"/>
<path d="M317.429 241.076H310.777V247.729H317.429V241.076Z" fill="white"/>
<path d="M330.719 241.076H324.066V247.729H330.719V241.076Z" fill="white"/>
<path d="M344.007 241.076H337.355V247.729H344.007V241.076Z" fill="white"/>
<path d="M137.779 247.743H131.127V254.395H137.779V247.743Z" fill="white"/>
<path d="M157.78 247.743H151.127V254.395H157.78V247.743Z" fill="white"/>
<path d="M171.025 247.743H164.373V254.395H171.025V247.743Z" fill="white"/>
<path d="M184.329 247.743H177.677V254.395H184.329V247.743Z" fill="white"/>
<path d="M197.707 247.743H191.054V254.395H197.707V247.743Z" fill="white"/>
<path d="M204.359 247.743H197.707V254.395H204.359V247.743Z" fill="white"/>
<path d="M230.982 247.743H224.33V254.395H230.982V247.743Z" fill="white"/>
<path d="M257.56 247.743H250.908V254.395H257.56V247.743Z" fill="white"/>
<path d="M264.212 247.743H257.56V254.395H264.212V247.743Z" fill="white"/>
<path d="M277.532 247.743H270.88V254.395H277.532V247.743Z" fill="white"/>
<path d="M284.139 247.743H277.487V254.395H284.139V247.743Z" fill="white"/>
<path d="M290.851 247.743H284.198V254.395H290.851V247.743Z" fill="white"/>
<path d="M297.458 247.743H290.806V254.395H297.458V247.743Z" fill="white"/>
<path d="M304.11 247.743H297.458V254.395H304.11V247.743Z" fill="white"/>
<path d="M310.807 247.743H304.155V254.395H310.807V247.743Z" fill="white"/>
<path d="M324.051 247.736H317.399V254.388H324.051V247.736Z" fill="white"/>
<path d="M330.719 247.743H324.066V254.395H330.719V247.743Z" fill="white"/>
<path d="M337.4 247.743H330.748V254.395H337.4V247.743Z" fill="white"/>
<path d="M344.007 247.743H337.355V254.395H344.007V247.743Z" fill="white"/>
<path d="M137.779 254.396H131.127V261.048H137.779V254.396Z" fill="white"/>
<path d="M144.475 254.396H137.823V261.048H144.475V254.396Z" fill="white"/>
<path d="M151.187 254.396H144.535V261.048H151.187V254.396Z" fill="white"/>
<path d="M177.691 254.396H171.039V261.048H177.691V254.396Z" fill="white"/>
<path d="M197.707 254.396H191.054V261.048H197.707V254.396Z" fill="white"/>
<path d="M224.315 254.396H217.663V261.048H224.315V254.396Z" fill="white"/>
<path d="M237.619 254.396H230.967V261.048H237.619V254.396Z" fill="white"/>
<path d="M250.879 254.396H244.227V261.048H250.879V254.396Z" fill="white"/>
<path d="M290.851 254.396H284.198V261.048H290.851V254.396Z" fill="white"/>
<path d="M297.458 254.396H290.806V261.048H297.458V254.396Z" fill="white"/>
<path d="M317.429 254.396H310.777V261.048H317.429V254.396Z" fill="white"/>
<path d="M324.051 254.396H317.399V261.048H324.051V254.396Z" fill="white"/>
<path d="M330.719 254.396H324.066V261.048H330.719V254.396Z" fill="white"/>
<path d="M137.779 261.04H131.127V267.692H137.779V261.04Z" fill="white"/>
<path d="M144.475 261.04H137.823V267.692H144.475V261.04Z" fill="white"/>
<path d="M171.025 261.04H164.373V267.692H171.025V261.04Z" fill="white"/>
<path d="M177.691 261.04H171.039V267.692H177.691V261.04Z" fill="white"/>
<path d="M184.329 261.04H177.677V267.692H184.329V261.04Z" fill="white"/>
<path d="M191.04 261.04H184.388V267.692H191.04V261.04Z" fill="white"/>
<path d="M197.707 261.04H191.054V267.692H197.707V261.04Z" fill="white"/>
<path d="M217.663 261.04H211.011V267.692H217.663V261.04Z" fill="white"/>
<path d="M230.982 261.04H224.33V267.692H230.982V261.04Z" fill="white"/>
<path d="M237.619 261.04H230.967V267.692H237.619V261.04Z" fill="white"/>
<path d="M244.242 261.04H237.589V267.692H244.242V261.04Z" fill="white"/>
<path d="M264.212 261.04H257.56V267.692H264.212V261.04Z" fill="white"/>
<path d="M290.851 261.04H284.198V267.692H290.851V261.04Z" fill="white"/>
<path d="M310.807 261.04H304.155V267.692H310.807V261.04Z" fill="white"/>
<path d="M324.051 261.04H317.399V267.692H324.051V261.04Z" fill="white"/>
<path d="M344.007 261.04H337.355V267.692H344.007V261.04Z" fill="white"/>
<path d="M131.172 267.699H124.519V274.352H131.172V267.699Z" fill="white"/>
<path d="M157.78 267.699H151.127V274.352H157.78V267.699Z" fill="white"/>
<path d="M164.432 267.699H157.779V274.352H164.432V267.699Z" fill="white"/>
<path d="M184.329 267.699H177.677V274.352H184.329V267.699Z" fill="white"/>
<path d="M191.04 267.699H184.388V274.352H191.04V267.699Z" fill="white"/>
<path d="M204.359 267.699H197.707V274.352H204.359V267.699Z" fill="white"/>
<path d="M210.967 267.699H204.314V274.352H210.967V267.699Z" fill="white"/>
<path d="M230.982 267.699H224.33V274.352H230.982V267.699Z" fill="white"/>
<path d="M244.242 267.699H237.589V274.352H244.242V267.699Z" fill="white"/>
<path d="M250.879 267.699H244.227V274.352H250.879V267.699Z" fill="white"/>
<path d="M257.56 267.699H250.908V274.352H257.56V267.699Z" fill="white"/>
<path d="M277.532 267.699H270.88V274.352H277.532V267.699Z" fill="white"/>
<path d="M284.139 267.699H277.487V274.352H284.139V267.699Z" fill="white"/>
<path d="M297.458 267.699H290.806V274.352H297.458V267.699Z" fill="white"/>
<path d="M304.11 267.699H297.458V274.352H304.11V267.699Z" fill="white"/>
<path d="M317.429 267.699H310.777V274.352H317.429V267.699Z" fill="white"/>
<path d="M324.051 267.699H317.399V274.352H324.051V267.699Z" fill="white"/>
<path d="M330.719 267.699H324.066V274.352H330.719V267.699Z" fill="white"/>
<path d="M131.172 274.344H124.519V280.997H131.172V274.344Z" fill="white"/>
<path d="M151.187 274.351H144.535V281.004H151.187V274.351Z" fill="white"/>
<path d="M157.78 274.351H151.127V281.004H157.78V274.351Z" fill="white"/>
<path d="M171.025 274.351H164.373V281.004H171.025V274.351Z" fill="white"/>
<path d="M177.691 274.351H171.039V281.004H177.691V274.351Z" fill="white"/>
<path d="M191.04 274.351H184.388V281.004H191.04V274.351Z" fill="white"/>
<path d="M210.967 274.351H204.314V281.004H210.967V274.351Z" fill="white"/>
<path d="M217.663 274.351H211.011V281.004H217.663V274.351Z" fill="white"/>
<path d="M230.982 274.351H224.33V281.004H230.982V274.351Z" fill="white"/>
<path d="M237.619 274.351H230.967V281.004H237.619V274.351Z" fill="white"/>
<path d="M250.879 274.351H244.227V281.004H250.879V274.351Z" fill="white"/>
<path d="M270.864 274.351H264.212V281.004H270.864V274.351Z" fill="white"/>
<path d="M277.532 274.344H270.88V280.997H277.532V274.344Z" fill="white"/>
<path d="M284.139 274.351H277.487V281.004H284.139V274.351Z" fill="white"/>
<path d="M304.11 274.351H297.458V281.004H304.11V274.351Z" fill="white"/>
<path d="M310.807 274.351H304.155V281.004H310.807V274.351Z" fill="white"/>
<path d="M324.051 274.351H317.399V281.004H324.051V274.351Z" fill="white"/>
<path d="M330.719 274.351H324.066V281.004H330.719V274.351Z" fill="white"/>
<path d="M337.4 274.351H330.748V281.004H337.4V274.351Z" fill="white"/>
<path d="M344.007 274.351H337.355V281.004H344.007V274.351Z" fill="white"/>
<path d="M131.172 280.996H124.519V287.648H131.172V280.996Z" fill="white"/>
<path d="M144.475 280.996H137.823V287.648H144.475V280.996Z" fill="white"/>
<path d="M151.187 280.996H144.535V287.648H151.187V280.996Z" fill="white"/>
<path d="M157.78 280.996H151.127V287.648H157.78V280.996Z" fill="white"/>
<path d="M164.432 280.996H157.779V287.648H164.432V280.996Z" fill="white"/>
<path d="M191.04 280.996H184.388V287.648H191.04V280.996Z" fill="white"/>
<path d="M197.707 280.996H191.054V287.648H197.707V280.996Z" fill="white"/>
<path d="M210.967 280.996H204.314V287.648H210.967V280.996Z" fill="white"/>
<path d="M224.315 280.996H217.663V287.648H224.315V280.996Z" fill="white"/>
<path d="M244.242 280.996H237.589V287.648H244.242V280.996Z" fill="white"/>
<path d="M277.532 280.996H270.88V287.648H277.532V280.996Z" fill="white"/>
<path d="M290.851 280.996H284.198V287.648H290.851V280.996Z" fill="white"/>
<path d="M297.458 280.996H290.806V287.648H297.458V280.996Z" fill="white"/>
<path d="M310.807 280.996H304.155V287.648H310.807V280.996Z" fill="white"/>
<path d="M330.719 280.996H324.066V287.648H330.719V280.996Z" fill="white"/>
<path d="M337.4 280.996H330.748V287.648H337.4V280.996Z" fill="white"/>
<path d="M344.007 280.996H337.355V287.648H344.007V280.996Z" fill="white"/>
<path d="M131.172 287.648H124.519V294.3H131.172V287.648Z" fill="white"/>
<path d="M137.779 287.648H131.127V294.3H137.779V287.648Z" fill="white"/>
<path d="M144.475 287.648H137.823V294.3H144.475V287.648Z" fill="white"/>
<path d="M157.78 287.648H151.127V294.3H157.78V287.648Z" fill="white"/>
<path d="M164.432 287.648H157.779V294.3H164.432V287.648Z" fill="white"/>
<path d="M171.025 287.648H164.373V294.3H171.025V287.648Z" fill="white"/>
<path d="M177.691 287.648H171.039V294.3H177.691V287.648Z" fill="white"/>
<path d="M184.329 287.648H177.677V294.3H184.329V287.648Z" fill="white"/>
<path d="M204.359 287.648H197.707V294.3H204.359V287.648Z" fill="white"/>
<path d="M210.967 287.648H204.314V294.3H210.967V287.648Z" fill="white"/>
<path d="M224.315 287.648H217.663V294.3H224.315V287.648Z" fill="white"/>
<path d="M264.212 287.648H257.56V294.3H264.212V287.648Z" fill="white"/>
<path d="M284.139 287.648H277.487V294.3H284.139V287.648Z" fill="white"/>
<path d="M290.851 287.648H284.198V294.3H290.851V287.648Z" fill="white"/>
<path d="M297.458 287.648H290.806V294.3H297.458V287.648Z" fill="white"/>
<path d="M304.11 287.648H297.458V294.3H304.11V287.648Z" fill="white"/>
<path d="M310.807 287.648H304.155V294.3H310.807V287.648Z" fill="white"/>
<path d="M317.429 287.648H310.777V294.3H317.429V287.648Z" fill="white"/>
<path d="M324.051 287.648H317.399V294.3H324.051V287.648Z" fill="white"/>
<path d="M337.4 287.648H330.748V294.3H337.4V287.648Z" fill="white"/>
<path d="M184.329 294.315H177.677V300.967H184.329V294.315Z" fill="white"/>
<path d="M204.359 294.315H197.707V300.967H204.359V294.315Z" fill="white"/>
<path d="M210.967 294.315H204.314V300.967H210.967V294.315Z" fill="white"/>
<path d="M217.663 294.315H211.011V300.967H217.663V294.315Z" fill="white"/>
<path d="M224.315 294.315H217.663V300.967H224.315V294.315Z" fill="white"/>
<path d="M230.982 294.315H224.33V300.967H230.982V294.315Z" fill="white"/>
<path d="M237.619 294.315H230.967V300.967H237.619V294.315Z" fill="white"/>
<path d="M244.242 294.315H237.589V300.967H244.242V294.315Z" fill="white"/>
<path d="M250.879 294.315H244.227V300.967H250.879V294.315Z" fill="white"/>
<path d="M264.212 294.315H257.56V300.967H264.212V294.315Z" fill="white"/>
<path d="M284.139 294.315H277.487V300.967H284.139V294.315Z" fill="white"/>
<path d="M290.851 294.315H284.198V300.967H290.851V294.315Z" fill="white"/>
<path d="M317.429 294.315H310.777V300.967H317.429V294.315Z" fill="white"/>
<path d="M330.719 294.315H324.066V300.967H330.719V294.315Z" fill="white"/>
<path d="M337.4 294.315H330.748V300.967H337.4V294.315Z" fill="white"/>
<path d="M184.329 300.967H177.677V307.619H184.329V300.967Z" fill="white"/>
<path d="M204.359 300.96H197.707V307.612H204.359V300.96Z" fill="white"/>
<path d="M210.967 300.967H204.314V307.619H210.967V300.967Z" fill="white"/>
<path d="M217.663 300.967H211.011V307.619H217.663V300.967Z" fill="white"/>
<path d="M224.315 300.967H217.663V307.619H224.315V300.967Z" fill="white"/>
<path d="M230.982 300.967H224.33V307.619H230.982V300.967Z" fill="white"/>
<path d="M237.619 300.967H230.967V307.619H237.619V300.967Z" fill="white"/>
<path d="M250.879 300.967H244.227V307.619H250.879V300.967Z" fill="white"/>
<path d="M257.56 300.967H250.908V307.619H257.56V300.967Z" fill="white"/>
<path d="M264.212 300.967H257.56V307.619H264.212V300.967Z" fill="white"/>
<path d="M270.864 300.967H264.212V307.619H270.864V300.967Z" fill="white"/>
<path d="M284.139 300.967H277.487V307.619H284.139V300.967Z" fill="white"/>
<path d="M290.851 300.967H284.198V307.619H290.851V300.967Z" fill="white"/>
<path d="M304.11 300.967H297.458V307.619H304.11V300.967Z" fill="white"/>
<path d="M317.429 300.967H310.777V307.619H317.429V300.967Z" fill="white"/>
<path d="M330.719 300.967H324.066V307.619H330.719V300.967Z" fill="white"/>
<path d="M184.329 307.619H177.677V314.272H184.329V307.619Z" fill="white"/>
<path d="M197.707 307.619H191.054V314.272H197.707V307.619Z" fill="white"/>
<path d="M217.663 307.619H211.011V314.272H217.663V307.619Z" fill="white"/>
<path d="M250.879 307.619H244.227V314.272H250.879V307.619Z" fill="white"/>
<path d="M257.56 307.619H250.908V314.272H257.56V307.619Z" fill="white"/>
<path d="M264.212 307.619H257.56V314.272H264.212V307.619Z" fill="white"/>
<path d="M284.139 307.619H277.487V314.272H284.139V307.619Z" fill="white"/>
<path d="M290.851 307.619H284.198V314.272H290.851V307.619Z" fill="white"/>
<path d="M317.429 307.619H310.777V314.272H317.429V307.619Z" fill="white"/>
<path d="M324.051 307.619H317.399V314.272H324.051V307.619Z" fill="white"/>
<path d="M330.719 307.619H324.066V314.272H330.719V307.619Z" fill="white"/>
<path d="M337.4 307.619H330.748V314.272H337.4V307.619Z" fill="white"/>
<path d="M344.007 307.619H337.355V314.272H344.007V307.619Z" fill="white"/>
<path d="M184.329 314.264H177.677V320.916H184.329V314.264Z" fill="white"/>
<path d="M191.04 314.264H184.388V320.916H191.04V314.264Z" fill="white"/>
<path d="M197.707 314.264H191.054V320.916H197.707V314.264Z" fill="white"/>
<path d="M204.359 314.264H197.707V320.916H204.359V314.264Z" fill="white"/>
<path d="M210.967 314.264H204.314V320.916H210.967V314.264Z" fill="white"/>
<path d="M224.315 314.264H217.663V320.916H224.315V314.264Z" fill="white"/>
<path d="M264.212 314.264H257.56V320.916H264.212V314.264Z" fill="white"/>
<path d="M277.532 314.264H270.88V320.916H277.532V314.264Z" fill="white"/>
<path d="M284.139 314.264H277.487V320.916H284.139V314.264Z" fill="white"/>
<path d="M290.851 314.264H284.198V320.916H290.851V314.264Z" fill="white"/>
<path d="M297.458 314.264H290.806V320.916H297.458V314.264Z" fill="white"/>
<path d="M304.11 314.264H297.458V320.916H304.11V314.264Z" fill="white"/>
<path d="M310.807 314.264H304.155V320.916H310.807V314.264Z" fill="white"/>
<path d="M317.429 314.264H310.777V320.916H317.429V314.264Z" fill="white"/>
<path d="M184.329 320.916H177.677V327.568H184.329V320.916Z" fill="white"/>
<path d="M191.04 320.916H184.388V327.568H191.04V320.916Z" fill="white"/>
<path d="M204.359 320.916H197.707V327.568H204.359V320.916Z" fill="white"/>
<path d="M217.663 320.916H211.011V327.568H217.663V320.916Z" fill="white"/>
<path d="M230.982 320.916H224.33V327.568H230.982V320.916Z" fill="white"/>
<path d="M244.242 320.916H237.589V327.568H244.242V320.916Z" fill="white"/>
<path d="M257.56 320.916H250.908V327.568H257.56V320.916Z" fill="white"/>
<path d="M264.212 320.916H257.56V327.568H264.212V320.916Z" fill="white"/>
<path d="M270.864 320.916H264.212V327.568H270.864V320.916Z" fill="white"/>
<path d="M277.532 320.916H270.88V327.568H277.532V320.916Z" fill="white"/>
<path d="M284.139 320.916H277.487V327.568H284.139V320.916Z" fill="white"/>
<path d="M290.851 320.916H284.198V327.568H290.851V320.916Z" fill="white"/>
<path d="M297.458 320.916H290.806V327.568H297.458V320.916Z" fill="white"/>
<path d="M310.807 320.916H304.155V327.568H310.807V320.916Z" fill="white"/>
<path d="M337.4 320.916H330.748V327.568H337.4V320.916Z" fill="white"/>
<path d="M344.007 320.916H337.355V327.568H344.007V320.916Z" fill="white"/>
<path d="M197.707 327.568H191.054V334.22H197.707V327.568Z" fill="white"/>
<path d="M230.982 327.568H224.33V334.22H230.982V327.568Z" fill="white"/>
<path d="M237.619 327.568H230.967V334.22H237.619V327.568Z" fill="white"/>
<path d="M250.879 327.568H244.227V334.22H250.879V327.568Z" fill="white"/>
<path d="M257.56 327.568H250.908V334.22H257.56V327.568Z" fill="white"/>
<path d="M264.212 327.568H257.56V334.22H264.212V327.568Z" fill="white"/>
<path d="M270.864 327.568H264.212V334.22H270.864V327.568Z" fill="white"/>
<path d="M277.532 327.568H270.88V334.22H277.532V327.568Z" fill="white"/>
<path d="M284.139 327.568H277.487V334.22H284.139V327.568Z" fill="white"/>
<path d="M290.851 327.568H284.198V334.22H290.851V327.568Z" fill="white"/>
<path d="M310.807 327.568H304.155V334.22H310.807V327.568Z" fill="white"/>
<path d="M317.429 327.568H310.777V334.22H317.429V327.568Z" fill="white"/>
<path d="M330.719 327.568H324.066V334.22H330.719V327.568Z" fill="white"/>
<path d="M337.4 327.568H330.748V334.22H337.4V327.568Z" fill="white"/>
<path d="M344.007 327.568H337.355V334.22H344.007V327.568Z" fill="white"/>
<path d="M217.663 334.22H211.011V340.872H217.663V334.22Z" fill="white"/>
<path d="M237.619 334.22H230.967V340.872H237.619V334.22Z" fill="white"/>
<path d="M257.56 334.22H250.908V340.872H257.56V334.22Z" fill="white"/>
<path d="M277.532 334.22H270.88V340.872H277.532V334.22Z" fill="white"/>
<path d="M310.807 334.22H304.155V340.872H310.807V334.22Z" fill="white"/>
<path d="M317.429 334.22H310.777V340.872H317.429V334.22Z" fill="white"/>
<path d="M324.051 334.22H317.399V340.872H324.051V334.22Z" fill="white"/>
<path d="M330.719 334.22H324.066V340.872H330.719V334.22Z" fill="white"/>
<path d="M337.4 334.22H330.748V340.872H337.4V334.22Z" fill="white"/>
<path d="M344.007 334.22H337.355V340.872H344.007V334.22Z" fill="white"/>
<path d="M184.329 340.872H177.677V347.524H184.329V340.872Z" fill="white"/>
<path d="M191.04 340.872H184.388V347.524H191.04V340.872Z" fill="white"/>
<path d="M204.359 340.88H197.707V347.532H204.359V340.88Z" fill="white"/>
<path d="M230.982 340.872H224.33V347.524H230.982V340.872Z" fill="white"/>
<path d="M237.619 340.872H230.967V347.524H237.619V340.872Z" fill="white"/>
<path d="M244.242 340.872H237.589V347.524H244.242V340.872Z" fill="white"/>
<path d="M257.56 340.872H250.908V347.524H257.56V340.872Z" fill="white"/>
<path d="M284.139 340.872H277.487V347.524H284.139V340.872Z" fill="white"/>
<path d="M290.851 340.872H284.198V347.524H290.851V340.872Z" fill="white"/>
<path d="M304.11 340.872H297.458V347.524H304.11V340.872Z" fill="white"/>
<path d="M310.807 340.872H304.155V347.524H310.807V340.872Z" fill="white"/>
<path d="M317.429 340.872H310.777V347.524H317.429V340.872Z" fill="white"/>
<path d="M164.1 127.999H131.504H124.519V134.984V167.58V174.565H131.504H164.1H171.085V167.58V134.984V127.999H164.1ZM164.1 167.58H131.504V134.984H164.1V167.58Z" fill="white"/>
<path d="M337.083 127.999H304.486H297.502V134.984V167.58V174.565H304.486H337.083H344.068V167.58V134.984V127.999H337.083ZM337.083 167.58H304.486V134.984H337.083V167.58Z" fill="white"/>
<path d="M164.1 300.968H131.504H124.519V307.952V340.549V347.534H131.504H164.1H171.085V340.549V307.952V300.968H164.1ZM164.1 340.549H131.504V307.952H164.1V340.549Z" fill="white"/>
<path d="M157.78 141.311H137.823V161.267H157.78V141.311Z" fill="white"/>
<path d="M330.734 141.311H310.777V161.267H330.734V141.311Z" fill="white"/>
<path d="M157.78 314.264H137.823V334.221H157.78V314.264Z" fill="white"/>
<path d="M176.665 402.57C176.673 401.911 176.578 401.324 176.379 400.809C176.194 400.294 175.856 399.821 175.363 399.391C174.87 398.96 174.171 398.542 173.268 398.136C172.379 397.715 171.242 397.284 169.855 396.843C168.337 396.356 166.937 395.82 165.655 395.233C164.388 394.632 163.282 393.945 162.339 393.172C161.396 392.385 160.667 391.49 160.152 390.488C159.636 389.471 159.386 388.303 159.402 386.985C159.417 385.681 159.702 384.498 160.257 383.435C160.826 382.372 161.62 381.459 162.64 380.695C163.675 379.916 164.89 379.322 166.287 378.914C167.684 378.491 169.224 378.289 170.909 378.309C173.282 378.337 175.32 378.8 177.023 379.7C178.741 380.599 180.053 381.794 180.958 383.284C181.878 384.774 182.328 386.413 182.307 388.2L176.836 388.135C176.848 387.081 176.632 386.148 176.188 385.337C175.758 384.512 175.092 383.859 174.189 383.38C173.301 382.901 172.169 382.653 170.792 382.637C169.488 382.621 168.402 382.806 167.533 383.191C166.664 383.577 166.013 384.104 165.581 384.772C165.148 385.441 164.927 386.2 164.917 387.05C164.909 387.65 165.042 388.201 165.315 388.703C165.587 389.189 166.007 389.648 166.573 390.08C167.139 390.497 167.852 390.893 168.712 391.27C169.572 391.646 170.586 392.01 171.754 392.36C173.52 392.909 175.058 393.513 176.369 394.173C177.68 394.818 178.77 395.549 179.639 396.365C180.509 397.181 181.157 398.104 181.584 399.135C182.012 400.15 182.218 401.303 182.203 402.592C182.187 403.939 181.901 405.152 181.347 406.229C180.792 407.292 180.005 408.199 178.985 408.948C177.981 409.684 176.773 410.248 175.362 410.642C173.966 411.021 172.411 411.2 170.697 411.18C169.159 411.162 167.645 410.939 166.156 410.511C164.681 410.083 163.341 409.445 162.135 408.596C160.93 407.732 159.975 406.666 159.273 405.398C158.57 404.115 158.228 402.624 158.249 400.925L163.763 400.99C163.751 402.03 163.916 402.918 164.259 403.655C164.617 404.391 165.115 404.998 165.754 405.474C166.393 405.936 167.136 406.282 167.983 406.511C168.845 406.741 169.766 406.862 170.748 406.874C172.037 406.889 173.115 406.718 173.984 406.362C174.867 406.007 175.532 405.502 175.979 404.848C176.427 404.194 176.655 403.435 176.665 402.57ZM192.404 387.22L192.124 410.993L186.807 410.93L187.087 387.158L192.404 387.22ZM186.809 380.914C186.819 380.108 187.09 379.445 187.624 378.924C188.172 378.388 188.922 378.126 189.874 378.137C190.812 378.148 191.548 378.428 192.084 378.976C192.62 379.51 192.883 380.18 192.873 380.985C192.864 381.776 192.585 382.432 192.037 382.953C191.489 383.474 190.746 383.729 189.809 383.718C188.857 383.707 188.113 383.434 187.577 382.9C187.056 382.367 186.8 381.705 186.809 380.914ZM213.431 387.468L218.242 387.525L217.97 410.639C217.944 412.777 217.469 414.588 216.543 416.071C215.617 417.555 214.337 418.675 212.702 419.432C211.067 420.204 209.18 420.577 207.041 420.552C206.133 420.541 205.124 420.398 204.014 420.121C202.919 419.844 201.854 419.407 200.821 418.809C199.803 418.225 198.955 417.461 198.277 416.515L200.797 413.425C201.635 414.445 202.563 415.196 203.583 415.677C204.603 416.158 205.677 416.405 206.805 416.418C208.02 416.432 209.056 416.218 209.911 415.774C210.78 415.344 211.454 414.7 211.933 413.842C212.412 412.983 212.659 411.931 212.673 410.686L212.884 392.846L213.431 387.468ZM197.139 399.428L197.144 398.967C197.165 397.165 197.404 395.527 197.861 394.053C198.318 392.564 198.963 391.29 199.796 390.23C200.629 389.156 201.635 388.34 202.813 387.783C203.992 387.211 205.321 386.933 206.801 386.951C208.338 386.969 209.646 387.263 210.723 387.832C211.815 388.402 212.722 389.211 213.442 390.259C214.162 391.293 214.719 392.53 215.112 393.971C215.52 395.396 215.816 396.982 216.001 398.727L215.983 400.2C215.773 401.896 215.432 403.445 214.962 404.846C214.491 406.247 213.876 407.455 213.117 408.472C212.358 409.488 211.426 410.269 210.321 410.812C209.23 411.356 207.945 411.619 206.466 411.602C205.016 411.585 203.708 411.269 202.544 410.655C201.394 410.04 200.407 409.186 199.585 408.093C198.778 406.999 198.163 405.717 197.741 404.247C197.319 402.763 197.118 401.156 197.139 399.428ZM202.439 399.029L202.434 399.49C202.421 400.574 202.511 401.586 202.705 402.526C202.914 403.466 203.234 404.297 203.665 405.02C204.111 405.729 204.675 406.292 205.359 406.71C206.057 407.114 206.883 407.322 207.835 407.333C209.08 407.348 210.101 407.096 210.898 406.578C211.71 406.06 212.333 405.357 212.769 404.469C213.219 403.566 213.538 402.559 213.727 401.447L213.774 397.471C213.696 396.605 213.523 395.798 213.253 395.047C212.998 394.297 212.647 393.641 212.2 393.079C211.752 392.503 211.186 392.056 210.502 391.741C209.817 391.41 209.006 391.24 208.069 391.229C207.116 391.217 206.286 391.413 205.579 391.815C204.871 392.216 204.285 392.773 203.823 393.486C203.375 394.198 203.036 395.029 202.805 395.979C202.574 396.928 202.452 397.945 202.439 399.029ZM228.926 392.727L228.706 411.425L223.411 411.362L223.691 387.589L228.679 387.648L228.926 392.727ZM227.912 398.648L226.198 398.606C226.233 396.922 226.485 395.379 226.956 393.978C227.441 392.578 228.1 391.377 228.932 390.376C229.779 389.375 230.784 388.611 231.948 388.082C233.111 387.539 234.404 387.276 235.824 387.293C236.967 387.306 237.998 387.48 238.917 387.813C239.85 388.132 240.643 388.646 241.294 389.357C241.959 390.068 242.461 390.99 242.799 392.122C243.138 393.239 243.297 394.611 243.278 396.236L243.097 411.594L237.78 411.532L237.961 396.152C237.975 395.009 237.817 394.107 237.488 393.443C237.173 392.766 236.703 392.284 236.077 391.998C235.465 391.698 234.698 391.543 233.775 391.532C232.867 391.521 232.051 391.702 231.329 392.074C230.607 392.447 229.993 392.959 229.487 393.613C228.996 394.266 228.614 395.023 228.34 395.885C228.066 396.746 227.923 397.667 227.912 398.648ZM278.562 380.018L284.055 380.083L283.803 401.461C283.774 403.892 283.223 405.922 282.149 407.55C281.075 409.178 279.625 410.399 277.799 411.213C275.987 412.012 273.968 412.398 271.742 412.372C269.442 412.345 267.397 411.91 265.605 411.069C263.813 410.213 262.407 408.958 261.386 407.305C260.38 405.653 259.891 403.611 259.92 401.179L260.172 379.801L265.665 379.866L265.413 401.244C265.395 402.782 265.643 404.052 266.159 405.054C266.675 406.042 267.413 406.776 268.374 407.256C269.336 407.736 270.475 407.984 271.794 407.999C273.112 408.015 274.25 407.794 275.207 407.336C276.18 406.879 276.935 406.163 277.474 405.188C278.013 404.198 278.292 402.934 278.31 401.396L278.562 380.018ZM294.692 392.997L294.358 421.34L289.063 421.278L289.451 388.365L294.328 388.422L294.692 392.997ZM310.098 400.277L310.092 400.738C310.072 402.467 309.848 404.068 309.42 405.543C309.008 407.003 308.399 408.277 307.595 409.367C306.806 410.441 305.837 411.272 304.687 411.859C303.538 412.446 302.216 412.731 300.722 412.713C299.243 412.696 297.949 412.41 296.843 411.855C295.751 411.285 294.83 410.49 294.08 409.471C293.33 408.451 292.729 407.257 292.276 405.89C291.839 404.508 291.534 402.995 291.363 401.352L291.384 399.573C291.595 397.832 291.936 396.254 292.407 394.838C292.892 393.423 293.522 392.207 294.296 391.191C295.069 390.175 296.009 389.395 297.114 388.851C298.219 388.307 299.504 388.044 300.969 388.061C302.463 388.079 303.785 388.388 304.935 388.987C306.086 389.572 307.05 390.404 307.828 391.482C308.607 392.546 309.185 393.828 309.563 395.326C309.941 396.81 310.119 398.46 310.098 400.277ZM304.797 400.676L304.803 400.214C304.816 399.116 304.725 398.097 304.531 397.157C304.337 396.202 304.025 395.364 303.594 394.641C303.163 393.918 302.606 393.354 301.922 392.951C301.253 392.533 300.442 392.318 299.49 392.307C298.553 392.296 297.745 392.447 297.068 392.762C296.39 393.061 295.821 393.487 295.361 394.038C294.9 394.589 294.541 395.237 294.283 395.981C294.025 396.711 293.84 397.507 293.728 398.37L293.677 402.632C293.841 403.689 294.129 404.659 294.544 405.543C294.958 406.427 295.551 407.137 296.321 407.673C297.106 408.195 298.113 408.464 299.344 408.478C300.296 408.489 301.111 408.294 301.79 407.892C302.468 407.49 303.024 406.932 303.457 406.219C303.905 405.492 304.238 404.654 304.454 403.704C304.67 402.754 304.785 401.745 304.797 400.676Z" fill="white"/>
<path d="M449.998 247C446.143 248.599 444.141 245.554 441.998 245.5C432.825 245.27 434.148 240.687 432.102 241.694C428.379 245 439.379 249.5 432.103 250.001C430.41 250.049 421.604 249.501 419.468 249.501C417.968 249.501 417.468 248.999 417.468 251.001C417.468 252.499 415.491 251.001 415.475 253.499C416.499 254.999 412.999 257.499 421.999 260.499C423.603 261.034 425.864 261.87 426.999 262.999C428.134 264.128 438.445 265.581 443.499 262.999C448.553 260.417 446.805 262.234 451.716 260.269C456.65 258.355 462.785 257.049 462.785 257.049L457.503 244.5L449.998 247Z" fill="#F0BB8F"/>
<path d="M446.118 244.605L488.99 228.556C495.935 218.983 505.378 177.241 514.266 170.922C517.072 168.957 519.738 184.225 524.31 183.159C527.323 194.384 537.095 186.738 532.97 197.521L529.177 207.527C522.803 214.3 511.826 245.96 502.806 249.03C495.034 251.645 454.313 263.298 454.313 263.298C443.971 257.246 446.15 244.658 446.15 244.658L446.118 244.605Z" fill="#31CE5D"/>
<path d="M502.764 248.982C494.992 251.597 454.271 263.251 454.271 263.251C451.239 261.444 449.283 259.138 448.042 256.696C456.208 254.135 497.017 241.417 499.088 239.312C501.394 236.994 521.45 194.487 521.45 194.487L518.379 227.499C513.474 235.061 511.837 245.88 502.818 248.951L502.764 248.982Z" fill="#1FB549"/>
<path d="M587.887 336.999L583.184 213.48L596.54 241.219L605.887 329.999L587.887 336.999Z" fill="#1FB549"/>
<path d="M518.721 331.498C515.835 357.891 524.812 373.945 523.953 378.037C523.095 382.129 521.509 409.616 526.322 435.206C528.848 448.625 545.638 487.226 545.668 491.75C545.707 497.795 543.391 507.538 543.905 507.685C544.416 507.833 560.037 508.796 560.037 508.796C560.037 508.796 559.804 502.43 559.555 499.094C559.306 495.759 557.796 450.057 556.171 438.024C554.546 425.994 553.285 405.999 553.285 405.999C553.285 405.999 560.746 426.766 565.72 448.752C570.693 470.739 570.857 500.122 570.857 500.122C566.014 503.961 587.295 500.139 587.295 497.04C587.593 497.311 588.163 484.68 587.574 479.753C586.987 474.851 591.051 451.696 588.322 429.232C585.737 407.966 584.131 388.534 584.131 383.292C584.131 378.05 592.848 341.612 591.328 325.159C591.22 324.006 519.209 327.062 518.725 331.498H518.721Z" fill="#F0BB8F"/>
<path d="M521.269 261.223C521.269 261.223 511.12 302.786 513.139 348.155C513.139 348.155 533.527 349.996 555.351 349.996C582.519 349.996 595.011 348.599 595.011 348.599C595.011 348.599 601.196 267.194 591.022 257.511C580.849 247.827 521.267 261.226 521.267 261.226L521.269 261.223Z" fill="#3994E9"/>
<path d="M572.867 264.101C572.867 264.101 573.147 275.78 573.868 320.381C573.868 320.381 577.073 349.996 584.867 349.996C594.569 349.996 599.201 349.996 599.201 349.996C599.201 349.996 601.409 269.971 597.776 260.451C594.143 250.931 572.866 264.103 572.866 264.103L572.867 264.101Z" fill="#2D7EC9"/>
<path d="M560.08 83.0051C567.347 83.1099 578.142 88.0209 583.275 100.408C588.835 113.814 588.835 160.513 588.835 160.513L581.071 161.123L581.031 158.335L579.839 161.221L555.199 163.154L530.856 161.601L530.47 158.331L529.929 161.542L522.882 161.093C522.882 161.093 509.735 82.2712 560.08 83.0051Z" fill="#C0560D"/>
<g opacity="0.11">
<path d="M533.888 135.5C533.436 147.497 534.655 161.55 534.655 161.55C534.655 161.55 548.3 162.575 559.334 162.824L575.404 161.563C577.586 158.529 576.446 128.641 576.446 128.641C576.446 128.641 534.072 130.556 533.885 135.5H533.888Z" fill="black"/>
</g>
<path d="M545.146 141.651C545.146 141.651 545.844 157.478 545.146 158.713C544.448 159.952 515.505 168.078 514.886 169.5C514.267 170.919 528.018 252.475 528.018 252.475H582.743C582.743 252.475 599.213 169.213 598.217 168.437C597.221 167.661 568.079 159.182 567.083 157.789C566.087 156.397 566.487 140.668 566.487 140.668L545.149 141.651H545.146Z" fill="#F0BB8F"/>
<path d="M536.506 114.501C536.506 114.501 535.123 124.208 536.607 134.056C538.133 144.19 548.623 150.807 555.441 150.807C560.758 150.807 571.602 145.226 573.644 135.511C575.806 125.22 574.655 113.521 574.655 112.594C574.655 110.795 571.168 95.3281 557.27 95.3281C543.372 95.3281 537.684 110.515 536.512 114.501H536.506Z" fill="#F0BB8F"/>
<path d="M533.597 136.721C533.597 136.721 530.298 94.1044 552.619 91.6374C574.939 89.1705 575.146 101.089 575.657 107.022C575.709 107.625 575.712 119.423 579.048 121.339C579.048 121.339 588.503 84.135 557.389 85.4192C526.275 86.7035 527.559 121.513 527.461 122.021C527.362 122.529 533.597 136.721 533.597 136.721Z" fill="#C0560D"/>
<path d="M578.786 124.964C579.536 121.755 578.199 118.699 575.801 118.139C573.402 117.578 570.849 119.724 570.099 122.933C569.349 126.141 570.685 129.197 573.084 129.758C575.483 130.319 578.035 128.172 578.786 124.964Z" fill="#F0BB8F"/>
<path d="M545.388 149.002C547.652 150.547 552.156 153.061 555.826 152.837C556.062 152.837 556.652 152.868 556.888 152.854C560.156 152.664 563.751 152.638 566.381 152C566.349 150.449 566.372 147.926 566.381 146.5C564.318 147.628 560.067 150.016 556.326 150.231C552.768 150.438 547.566 148.554 545.382 147.502C545.401 148.077 545.368 148.381 545.388 149.002Z" fill="#DF9557"/>
<path d="M540.003 170.524C540.003 170.524 546.522 174.521 555.955 174.521C567.906 174.521 572.873 169.285 572.873 169.285C572.873 169.285 581.342 267.643 578.691 268.495C567.854 271.977 535.727 271.204 530.564 268.315C529.05 267.469 540.003 170.524 540.003 170.524Z" fill="#E1EDF7"/>
<path d="M513.172 169.777C519.197 163.96 543.915 159 543.915 159C543.915 159 546.089 338.209 543.915 341.465C541.761 344.693 508.447 332.378 506.178 329.798C503.91 327.223 515.376 275.362 515.376 275.362C515.376 275.362 520.635 236.252 517.527 222.576C515.408 213.262 504.112 178.526 513.172 169.772V169.777Z" fill="#31CE5D"/>
<path d="M532.456 519.305C532.456 519.305 530.644 528.288 548.542 527.413C566.44 526.538 565.402 521.277 563.927 518.869C562.453 516.458 562.918 515.036 564.048 512.077C565.179 509.119 561.693 502.403 560.864 499.955C560.428 498.678 559.976 498.432 559.776 498.35C559.658 498.301 559.901 499.29 559.901 499.29C558.993 500.253 557.182 502.108 557.182 502.108C557.182 502.108 561.477 495.205 551.674 494.766C541.872 494.327 543.484 500.136 543.484 500.136L543.385 499.261C543.385 499.261 541.387 504.627 538.314 508.791C535.241 512.955 532.45 515.367 532.459 519.308L532.456 519.305Z" fill="#31CE5D"/>
<path d="M541.829 513.546C541.829 513.546 541.567 503.357 544.142 502.371C546.717 501.384 555.913 502.043 556.441 503.439C556.972 504.834 554.347 513.136 554.347 513.136L541.829 513.546Z" fill="#E1EDF7"/>
<path d="M598.924 518.523C598.924 518.523 600.736 527.507 582.838 526.632C564.94 525.757 565.978 520.496 567.453 518.088C568.927 515.676 568.462 514.254 567.331 511.296C566.201 508.338 569.687 501.621 570.516 499.174C570.952 497.896 571.404 497.651 571.604 497.569C571.722 497.52 571.479 498.509 571.479 498.509C572.387 499.472 574.198 501.327 574.198 501.327C574.198 501.327 569.903 494.424 579.706 493.985C589.508 493.546 587.896 499.354 587.896 499.354L587.994 498.48C587.994 498.48 589.993 503.846 593.066 508.01C596.139 512.174 598.93 514.585 598.92 518.527L598.924 518.523Z" fill="#31CE5D"/>
<path d="M589.551 512.777C589.551 512.777 589.813 502.588 587.238 501.602C584.663 500.616 575.466 501.274 574.939 502.67C574.408 504.066 577.032 512.367 577.032 512.367L589.551 512.777Z" fill="#E1EDF7"/>
<path d="M567.264 157.969C567.264 157.969 567.834 340.058 568.889 341.5C570.855 344.18 604.688 331.027 605.389 329.5C606.09 327.973 596.383 238.894 596.383 238.894C596.383 238.894 601.206 241.748 606.628 239.562C608.685 238.733 612.132 231.146 612.063 227.742C611.725 211.364 606.356 172.545 603.722 170.192C599.852 166.742 567.264 157.969 567.264 157.969Z" fill="#31CE5D"/>
<path d="M586.753 206.027C586.642 206.174 584.411 208.89 584.162 209.902C583.913 210.915 583.185 231.712 585.98 235.604C588.774 239.496 603.55 244.145 605.345 242.818C607.141 241.491 612.111 231.027 612.065 228.672C612.019 226.316 599.858 201.365 599.556 201.063C599.255 200.762 586.756 206.027 586.756 206.027H586.753Z" fill="#31CE5D"/>
<path d="M590.803 195L575.29 194.52C574.397 194.511 573.675 193.58 573.935 192.753L580.84 170.952C581.672 168.317 583.467 166.971 586.311 167L597.487 167.107C599.078 167.107 600.298 168.32 599.747 169.855L592.093 194.084C591.919 194.632 591.393 195.006 590.803 195Z" fill="#F9C069"/>
<path d="M598.375 168.114L586.932 168C584.329 167.973 583.019 169.083 582.256 171.504L574.881 194.841L590.762 195C591.361 195.006 591.892 194.628 592.065 194.073L599.851 169.374C600.067 168.651 599.091 168.12 598.371 168.114H598.375Z" fill="#F59300"/>
<path d="M594.754 175L591.491 174.992C591.081 174.992 590.789 174.659 590.908 174.333L592.076 171.184C592.337 170.478 593.121 169.997 594.008 170L597.272 170.008C597.681 170.008 597.974 170.341 597.854 170.667L596.687 173.816C596.426 174.522 595.642 175.003 594.754 175Z" fill="#AB4D0C"/>
<path d="M598.782 178.329C599.179 177.034 598.58 175.958 597.585 176.03L595.137 184.072C595.137 184.072 584.748 174.318 583.232 176.254C581.716 178.194 590.722 187.277 590.722 187.277L589.655 188.242C589.655 188.242 579.657 183.134 577.598 182.136C575.54 181.138 574.256 181.117 573.942 182.001C573.538 183.137 574.632 184.456 574.632 184.456C574.632 184.456 573.312 183.815 572.462 184.789C571.7 185.667 572.508 187.571 572.508 187.571C572.508 187.571 571.046 187.01 570.889 188.656C570.554 192.13 581.384 200.371 581.384 200.503C581.384 200.635 582.806 202.544 583.381 203.5C583.855 204.285 584.82 205.617 584.82 205.617C584.82 205.617 585.646 206.972 586.08 208C587.675 207.928 589.272 207.691 590.779 207.236C592.434 206.735 593.98 205.965 595.418 205.02C595.056 203.441 594.022 198.773 594.279 197.928C594.586 196.906 599.583 190.487 599.824 188.554C600.258 185.062 598.043 180.706 598.776 178.326L598.782 178.329Z" fill="#F0BB8F"/>
<path d="M729.164 498.831C728.265 503.465 731.516 506.37 731.516 506.37C731.516 506.37 721.625 517.16 710.004 517.99C698.384 518.89 691.398 513.079 691.398 513.079C691.398 513.079 705.37 506.093 707.376 500.283C709.382 494.473 729.233 498.831 729.233 498.831H729.164Z" fill="#F0BB8F"/>
<path d="M731.515 506.367C734.351 508.166 732.967 520.547 732.967 520.547C732.967 520.547 704.124 533.966 689.183 531.752C674.243 529.539 673.274 522.138 677.839 519.164C682.405 516.189 694.44 511.347 694.44 511.347L699.074 505.537C699.074 505.537 701.703 505.191 704.4 507.612C707.098 509.964 703.778 513.837 703.778 513.837C703.778 513.837 710.072 514.183 716.851 512.592C723.629 511.002 731.515 506.298 731.515 506.298V506.367Z" fill="#2D7EC9"/>
<path d="M674.592 488.239C673.762 492.666 676.805 495.433 676.805 495.433C676.805 495.433 667.467 505.601 656.469 506.431C645.471 507.261 638.831 501.727 638.831 501.727C638.831 501.727 652.042 495.156 653.979 489.623C655.916 484.089 674.592 488.239 674.592 488.239Z" fill="#F0BB8F"/>
<path d="M676.811 495.44C679.509 497.1 678.195 508.858 678.195 508.858C678.195 508.858 650.873 521.585 636.762 519.51C622.652 517.435 621.683 510.449 626.041 507.613C630.329 504.777 641.742 500.212 641.742 500.212L646.1 494.748C646.1 494.748 648.59 494.471 651.149 496.685C653.709 498.967 650.596 502.564 650.596 502.564C650.596 502.564 656.545 502.91 662.977 501.388C669.41 499.866 676.88 495.44 676.88 495.44H676.811Z" fill="#2D7EC9"/>
<path d="M726.96 386.152C721.841 368.86 720.942 313.456 720.458 294.296C719.974 275.205 719.42 268.426 717.622 258.743L671.763 240.275L636.902 265.66C636.902 265.66 635.864 310.62 636.21 321.756C636.487 332.892 636.625 385.046 640.014 394.66C643.334 404.275 643.334 409.462 642.989 420.944C642.643 431.32 644.441 478.286 644.787 486.932C644.787 487.831 645.34 488.592 646.101 488.938C657.652 494.54 672.178 491.981 676.881 490.874C677.85 490.667 678.541 489.906 678.611 488.938C679.994 477.871 682.207 438.375 682.553 426.132C682.899 413.197 678.818 407.249 676.259 398.395C674.53 392.378 676.951 343.821 677.089 319.888C681.931 346.518 691.891 401.231 693.275 405.381C695.142 410.915 698.116 418.316 699.569 440.173C700.883 459.541 701.921 492.258 702.128 499.451C702.128 500.351 702.682 501.181 703.442 501.526C711.881 505.192 726.199 502.426 731.11 501.319C732.148 501.111 732.839 500.212 732.908 499.175C733.254 492.396 734.638 466.527 735.675 442.179C736.92 413.82 732.009 403.375 726.891 386.083L726.96 386.152Z" fill="#63CDF6"/>
<g opacity="0.5">
<path d="M662.143 386.145C665.809 397.213 665.947 492.389 665.947 492.389C670.72 492.182 674.731 491.421 676.807 490.937C677.775 490.729 678.467 489.968 678.536 489C679.919 477.933 682.133 438.437 682.478 426.194C682.824 413.26 678.743 407.311 676.184 398.458C674.455 392.44 676.876 343.883 677.014 319.951L676.046 263.924L663.803 268.558C663.803 268.558 658.338 375.148 662.004 386.215L662.143 386.145Z" fill="#12AAE1"/>
</g>
<g opacity="0.5">
<path d="M713.961 386.15C721.016 405.587 721.569 486.86 719.702 503.184C724.543 502.769 728.901 501.939 731.184 501.386C732.221 501.178 732.913 500.279 732.982 499.242C733.328 492.463 734.711 466.594 735.749 442.246C736.994 413.887 732.083 403.442 726.964 386.15C721.846 368.858 720.947 313.453 720.462 294.293C719.978 275.203 719.01 274.234 718.941 263.721L679.86 242.347C673.289 243.592 667.686 244.492 663.882 244.63L659.248 245.114L647.212 261.784C667.825 272.782 700.058 267.041 700.058 267.041C700.058 267.041 706.421 365.33 713.961 386.15Z" fill="#12AAE1"/>
</g>
<path d="M649.556 82.4292C644.921 114.662 647.896 141.776 647.896 141.776L691.265 137.695L677.293 82.4292H649.487H649.556Z" fill="#343754"/>
<path d="M667.949 129.123C664.49 129.607 655.291 130.852 649.688 133.066C644.016 135.279 639.105 140.951 634.194 156.722C631.289 165.921 629.076 174.913 627.761 180.792C626.793 184.943 622.089 210.466 622.089 210.466L677.148 212.264V138.945L668.018 129.054L667.949 129.123Z" fill="#CE4F37"/>
<path d="M667.96 129.121C664.501 129.605 655.302 130.85 649.699 133.063C644.511 135.138 639.946 140.188 635.381 153.191L635.934 154.021C640.845 145.79 647.762 140.257 651.498 138.735C655.163 137.213 666.853 134.792 666.853 134.792L669.897 131.127L668.029 129.121H667.96Z" fill="#B8402D"/>
<path d="M668.228 120.745C669.68 124.203 667.951 130.359 666.498 132.573C665.046 134.786 666.014 142.948 675.629 144.677C685.243 146.407 691.676 142.948 694.858 139.005C698.04 135.063 694.858 108.64 694.858 108.64L686.212 103.383L668.228 120.745Z" fill="#F0BB8F"/>
<path d="M641.114 185.212C639.938 175.045 647.478 156.991 647.478 156.991C647.478 156.991 644.088 178.157 647.478 186.181L641.114 185.212Z" fill="#B8402D"/>
<g opacity="0.5">
<path d="M696.189 125.112C696.051 120.962 695.705 116.743 695.359 113.63C691.901 111.693 688.304 110.379 688.304 110.379C688.304 110.379 683.531 110.448 678.551 110.725L668.176 120.685C668.937 122.415 668.867 124.766 668.452 126.98C668.591 126.98 684.707 130.231 696.189 125.043V125.112Z" fill="#E8AB79"/>
</g>
<path d="M691.753 97.7201C694.727 105.19 690.785 113.145 683.799 118.125C676.813 123.105 668.858 126.564 664.362 122.137C659.866 117.641 654.263 110.032 654.263 105.052C654.263 100.072 648.453 99.726 649.906 89.2123C651.428 78.7677 658.344 71.7816 662.356 70.7441C666.368 69.7757 690.231 80.7045 690.231 80.7045L691.753 97.6509V97.7201Z" fill="#F0BB8F"/>
<path d="M660.068 71.9192C660.483 74.2018 657.647 82.2254 652.943 87.8973C648.24 93.5691 653.151 99.7252 649.692 105.397C646.234 111.069 655.848 128.569 649.692 135.278C643.536 141.918 637.657 142.195 635.927 154.023C635.927 154.023 630.74 142.887 634.475 134.517C638.21 126.148 642.36 121.652 638.694 114.043C634.959 106.365 633.991 94.0533 638.21 89.6265C642.429 85.1997 646.995 74.8243 646.649 68.6682C646.303 62.5122 659.168 48.6784 666.569 53.8661L660.137 71.9884L660.068 71.9192Z" fill="#444869"/>
<path d="M716.37 191.583C711.805 208.115 712.151 217.107 715.402 227.62C718.168 236.681 719.759 258.47 720.52 264.557C720.728 266.355 719.898 268.015 718.307 268.845C713.396 271.612 700.599 276.8 675.007 276.8C647.892 276.8 639.385 269.053 636.964 265.663C636.341 264.833 636.134 263.727 636.272 262.689C636.964 257.847 639.177 229.834 639.731 223.608C640.353 216.207 651.213 166.336 651.213 166.336L667.606 139.914L703.85 124.212L718.652 132.098L716.439 191.583H716.37Z" fill="#CE4F37"/>
<path d="M664.258 202.468C666.75 186.627 658.355 181.378 654.967 180.681C651.563 180.053 647.475 182.008 645.444 183.734C645.621 197.446 656.003 197.865 656.003 197.865L664.258 202.468Z" fill="#F0BB8F"/>
<path d="M636.76 215.337C634.207 216.812 628.047 219.04 624.751 216.894C621.454 214.747 622.151 206.218 623.154 204.547C624.088 202.853 645.44 183.73 645.44 183.73L657.754 188.992L636.76 215.337Z" fill="#F0BB8F"/>
<path d="M720.45 264.55C719.689 258.463 718.167 236.675 715.331 227.614C712.08 217.1 711.804 208.108 716.3 191.577C713.187 181.755 710.628 161.004 710.628 161.004C710.628 161.004 701.705 198.909 702.95 210.529C704.126 222.149 705.44 273.335 705.44 273.542C711.735 271.951 715.885 270.153 718.237 268.839C719.827 268.009 720.657 266.279 720.45 264.55Z" fill="#B8402D"/>
<path d="M662.562 222.233L679.101 222.948C680.052 223.009 680.893 222.076 680.682 221.175L675.06 197.44C674.383 194.57 672.58 192.997 669.553 192.804L657.655 192.034C655.964 191.908 654.57 193.102 655.034 194.779L661.261 221.156C661.403 221.753 661.933 222.192 662.562 222.233Z" fill="#63CDF6"/>
<path d="M656.633 193.034L668.814 193.817C671.585 193.994 672.89 195.278 673.511 197.914L679.511 223.32L662.606 222.235C661.969 222.194 661.433 221.75 661.293 221.146L654.963 194.258C654.79 193.471 655.87 192.984 656.636 193.034L656.633 193.034Z" fill="#00ABE1"/>
<path d="M659.943 200.644L663.415 200.893C663.85 200.926 664.188 200.594 664.086 200.238L663.093 196.797C662.871 196.025 662.075 195.452 661.131 195.384L657.659 195.135C657.224 195.102 656.886 195.434 656.987 195.79L657.981 199.231C658.203 200.003 658.998 200.577 659.943 200.644Z" fill="#2D7EC9"/>
<path d="M711.039 212C706.19 212.151 695.636 215.989 692.152 216.292C688.669 216.519 684.024 213.488 681.701 210.456C678.969 206.894 675.895 206.667 675.895 206.667L677.876 213.26C677.876 213.26 676.442 213.26 670.909 213.26C665.376 213.26 661.414 208.258 660.595 209.395C659.775 210.532 661.414 218.187 662.439 219.93C663.464 221.597 669.201 223.341 671.592 224.099C673.914 224.856 682.316 223.871 685.39 224.099C688.464 224.326 706.428 229.177 715.035 230.086C723.641 230.996 722.139 218.414 722.139 218.414L714.239 212.533L711.039 212Z" fill="#F0BB8F"/>
<path d="M718.591 132.092C729.451 136.518 732.909 141.222 736.368 151.874C739.826 162.457 742.316 199.255 743.008 209.353C743.769 219.452 743.008 224.156 740.795 225.124C738.581 226.092 727.649 231.358 712.639 230.666C712.639 230.666 718.668 214.974 710.506 212C710.506 212 719.314 210.498 722.773 211.466C722.773 211.466 717.485 197.318 715.064 186.943L718.66 132.092H718.591Z" fill="#CE4F37"/>
<path d="M660.067 71.9164C659.098 79.2484 678.051 85.7503 685.452 90.5229C691.677 94.5348 683.999 114.04 692.784 119.712C701.568 125.384 686.974 133.062 692.784 142.676C698.594 152.291 690.916 160.937 690.916 160.937C690.916 160.937 704.266 156.51 704.473 148.348C704.75 140.186 707.655 127.598 718.515 132.024C718.515 132.024 721.212 118.191 715.817 113.003C710.353 107.815 707.171 94.7423 710.145 90.7996C713.12 86.857 707.171 68.1121 700.047 68.5963C692.922 69.0805 688.703 45.4247 666.5 53.7941L660.067 71.9164Z" fill="#444869"/>
<path d="M737.601 156.991C737.601 156.991 740.229 215.578 739.053 218.414C737.878 221.319 721.502 228.166 714.239 225.123C714.101 227.751 712.639 230.666 712.639 230.666C727.718 231.427 738.569 226.161 740.783 225.123C742.996 224.155 743.757 219.451 742.996 209.352C742.374 200.499 740.368 171.309 737.601 156.991Z" fill="#B8402D"/>
<g opacity="0.5">
<path d="M652.89 87.8903C652.89 87.8903 653.444 87.1986 653.651 86.8528C653.375 87.1295 653.167 87.4061 652.89 87.8903Z" fill="#8A3F24"/>
</g>
<g opacity="0.5">
<path d="M710.145 90.8682C703.021 94.8109 712.22 115.7 700.6 114.109C685.659 112.034 691.47 100.275 687.319 93.22C689.74 99.9294 685.244 114.87 692.784 119.712C701.568 125.384 686.974 133.061 692.784 142.676C698.594 152.29 690.916 160.937 690.916 160.937C690.916 160.937 704.266 156.51 704.473 148.348C704.75 140.186 707.655 127.597 718.515 132.024C718.515 132.024 721.212 118.19 715.817 113.002C710.353 107.815 707.171 94.7417 710.145 90.7991V90.8682Z" fill="#2F324F"/>
</g>
<g opacity="0.5">
<path d="M648.927 108.51C645.123 121.237 635.854 110.585 635.37 99.5176C635.37 104.429 636.546 109.962 638.552 114.112C642.287 121.79 638.067 126.217 634.332 134.586C630.597 142.956 635.785 154.092 635.785 154.092C637.514 142.264 643.463 141.987 649.549 135.347C654.806 129.606 648.512 115.911 648.789 108.579L648.927 108.51Z" fill="#393D5D"/>
</g>
</svg>
